<svg xmlns="http://www.w3.org/2000/svg" xmlns:xlink="http://www.w3.org/1999/xlink" width="425.497" height="193.613" viewBox="0 0 425.497 193.613"><defs><style>.a{fill:#004635;}.b{fill:url(#a);}.c{fill:url(#d);}.d{fill:url(#r);}.e{fill:url(#u);}.f{fill:url(#x);}</style><linearGradient id="a" y1="0.5" x2="1" y2="0.5" gradientUnits="objectBoundingBox"><stop offset="0" stop-color="#ffec75"/><stop offset="0.536" stop-color="#f6d462"/><stop offset="1" stop-color="#edbc50"/></linearGradient><linearGradient id="d" x1="0" y1="0.5" x2="1" y2="0.5" xlink:href="#a"/><linearGradient id="r" x1="0" y1="0.5" x2="1" y2="0.5" xlink:href="#a"/><linearGradient id="u" x1="0" y1="0.5" x2="1" y2="0.5" xlink:href="#a"/><linearGradient id="x" x1="0" y1="0.5" x2="1" y2="0.5" xlink:href="#a"/></defs><g transform="translate(0.706 0.211)"><rect class="a" width="425.496" height="193.613" transform="translate(-0.706 -0.211)"/><path class="b" d="M47.583,104.813H102.2a10.385,10.385,0,0,1-3.271,2.894H47.583Z"/><path class="b" d="M376.5,104.813v2.894H107.418a19,19,0,0,0,2.985-2.894Z"/><path class="b" d="M47.287,113.563c2.737.081,6.413.081,8.088.081,1.7,0,4.1,0,5.828-.081-.137,1.415-.191,2.873-.191,3.567,0,.9.027,1.7.081,2.287h-.639c-.4-3.88-.817-5.214-4.3-5.214H54.4c-1.893,0-2.261.285-2.261,2.314v6.862h2.042c2.425,0,2.37-2.341,2.588-3.675h.64c-.082,1.17-.1,1.974-.1,2.627,0,.5.014.913.014,1.321,0,.926.027,1.852.177,3.962h-.653c-.218-1.784-.245-3.676-2.67-3.676H52.134v6.413c0,2.029.477,2.315,2.819,2.4v.559c-.967-.055-2.587-.082-4.1-.082-1.444,0-2.792.027-3.568.082v-.559c1.893-.081,2.26-.367,2.26-2.4V116.517c0-2.029-.367-2.314-2.26-2.4Z"/><path class="c" d="M75.827,114.121c-1.892.082-2.26.367-2.26,2.4v13.834c0,2.029.368,2.315,2.26,2.4v.559c-.857-.055-2.26-.082-3.54-.082-1.443,0-2.791.027-3.567.082v-.559c1.893-.081,2.26-.367,2.26-2.4V116.517c0-2.029-.367-2.314-2.26-2.4v-.558c.776.054,2.124.081,3.567.081,1.28,0,2.683-.027,3.54-.081Z"/><path class="b" d="M101.252,114.121c-1.893.082-2.261.64-2.261,2.682v16.639h-.64l-11.709-18.1v14.718c0,2.042.368,2.6,2.532,2.682v.559c-.667-.055-1.892-.082-2.845-.082s-1.975.027-2.588.082v-.559c1.893-.081,2.261-.64,2.261-2.682V116.517c0-2.029-.368-2.314-2.261-2.4v-.558c.613.054,1.648.081,2.588.081.817,0,1.565-.027,2.178-.081l9.844,15.168V116.8c0-2.042-.354-2.6-2.532-2.682v-.558c.667.054,1.893.081,2.845.081s1.975-.027,2.588-.081Z"/><path class="b" d="M123.363,127.723c-.054.5-.081,1.239-.081,2.015,0,.695.054,2.152.191,3.568-1.893-.082-4.521-.082-6.386-.082-1.675,0-5.351,0-8.088.082v-.559c1.893-.081,2.26-.367,2.26-2.4V116.517c0-2.029-.367-2.314-2.26-2.4v-.558c2.737.081,6.413.081,8.088.081,1.7,0,4.1,0,5.827-.081-.136,1.307-.19,2.655-.19,3.295a15.113,15.113,0,0,0,.081,1.729h-.639c-.368-3.295-.79-4.384-3.745-4.384h-2.315c-1.892,0-2.26.285-2.26,2.314v6.577H115.7c2.424,0,2.369-2.342,2.587-3.677h.64c-.082,1.185-.1,1.988-.1,2.628,0,.518.014.926.014,1.334,0,.913.028,1.839.163,3.963h-.639c-.218-1.784-.245-3.69-2.669-3.69h-1.852v6.7c0,2.029.368,2.315,2.26,2.315h2.043c3.485,0,4.18-1.253,4.575-4.943Z"/><path class="b" d="M151.172,114.121c-1.892.082-2.26.367-2.26,2.4v13.834c0,2.029.368,2.315,2.26,2.4v.559c-.857-.055-2.26-.082-3.54-.082-1.443,0-2.791.027-3.567.082v-.559c1.893-.081,2.26-.367,2.26-2.4V116.517c0-2.029-.367-2.314-2.26-2.4v-.558c.776.054,2.124.081,3.567.081,1.28,0,2.683-.027,3.54-.081Z"/><path class="b" d="M176.6,114.121c-1.893.082-2.261.64-2.261,2.682v16.639h-.64l-11.709-18.1v14.718c0,2.042.367,2.6,2.532,2.682v.559c-.667-.055-1.893-.082-2.845-.082s-1.975.027-2.588.082v-.559c1.893-.081,2.261-.64,2.261-2.682V116.517c0-2.029-.368-2.314-2.261-2.4v-.558c.613.054,1.648.081,2.588.081.817,0,1.565-.027,2.178-.081l9.844,15.168V116.8c0-2.042-.354-2.6-2.532-2.682v-.558c.667.054,1.892.081,2.845.081s1.975-.027,2.588-.081Z"/><path class="b" d="M184.344,113.563c.64.041,1.689.095,2.723.095.232,0,.45-.014.681-.014,1.28-.027,3.145-.081,4.208-.081,6.644,0,9.844,3.431,9.844,9.653,0,6.073-3.676,10.09-10.09,10.09-.844,0-2.709-.082-3.907-.082-1.307,0-2.683.027-3.459.082v-.559c1.893-.081,2.261-.367,2.261-2.4V116.517c0-2.029-.368-2.314-2.261-2.4Zm4.847,16.843c0,1.946.368,2.4,2.1,2.4,6.073,0,7.721-3.4,7.721-9.477,0-6.249-1.975-9.259-7.748-9.259-1.7,0-2.07.477-2.07,2.4Z"/><path class="b" d="M216.94,114.121c-1.892.082-2.26.367-2.26,2.4v13.834c0,2.029.368,2.315,2.26,2.4v.559c-.857-.055-2.26-.082-3.54-.082-1.443,0-2.791.027-3.567.082v-.559c1.893-.081,2.26-.367,2.26-2.4V116.517c0-2.029-.367-2.314-2.26-2.4v-.558c.776.054,2.124.081,3.567.081,1.28,0,2.683-.027,3.54-.081Z"/><path class="b" d="M239.492,130.964c.558,1.416,1.347,1.756,1.933,1.783v.559c-.763-.055-1.933-.082-3-.082-1.443,0-2.777.027-3.567.082v-.559c1.348-.054,1.975-.258,1.975-1.034a3.855,3.855,0,0,0-.327-1.307l-1.716-4.576h-6.726l-1.144,2.955a6.587,6.587,0,0,0-.558,2.288c0,1.211.831,1.634,2.423,1.674v.559c-1.062-.055-2.232-.082-3.213-.082a20.341,20.341,0,0,0-2.083.082v-.559c.721-.163,1.552-.749,2.192-2.423l6.563-16.9h.449Zm-8.02-14.011-3.2,8.319h6.318Z"/><path class="b" d="M264.941,114.121c-1.893.082-2.261.64-2.261,2.682v16.639h-.64l-11.709-18.1v14.718c0,2.042.368,2.6,2.533,2.682v.559c-.667-.055-1.893-.082-2.846-.082s-1.975.027-2.587.082v-.559c1.893-.081,2.26-.64,2.26-2.682V116.517c0-2.029-.367-2.314-2.26-2.4v-.558c.612.054,1.647.081,2.587.081.817,0,1.565-.027,2.179-.081l9.843,15.168V116.8c0-2.042-.353-2.6-2.532-2.682v-.558c.667.054,1.893.081,2.846.081s1.974-.027,2.587-.081Z"/><path class="b" d="M285.2,113.563c2.737.081,6.413.081,8.088.081,1.7,0,4.1,0,5.828-.081-.136,1.415-.191,2.873-.191,3.567,0,.9.027,1.7.082,2.287h-.64c-.4-3.88-.818-5.214-4.3-5.214h-1.756c-1.893,0-2.261.285-2.261,2.314v6.862H292.1c2.424,0,2.369-2.341,2.586-3.675h.64c-.081,1.17-.1,1.974-.1,2.627,0,.5.014.913.014,1.321,0,.926.028,1.852.177,3.962h-.653c-.218-1.784-.245-3.676-2.669-3.676h-2.043v6.413c0,2.029.477,2.315,2.819,2.4v.559c-.967-.055-2.587-.082-4.1-.082-1.444,0-2.792.027-3.568.082v-.559c1.893-.081,2.26-.367,2.26-2.4V116.517c0-2.029-.367-2.314-2.26-2.4Z"/><path class="b" d="M324.38,123.271c0,6.236-3.677,10.43-8.864,10.43-5.3,0-8.837-3.718-8.837-10.1,0-6.237,3.677-10.43,8.864-10.43C320.839,113.168,324.38,116.885,324.38,123.271Zm-14.923.218c0,5.936,2.737,9.708,6.168,9.708,3.622,0,5.963-4.044,5.963-9.818,0-5.936-2.723-9.708-6.154-9.708C311.8,113.671,309.457,117.715,309.457,123.489Z"/><path class="b" d="M350.617,123.271c0,6.236-3.676,10.43-8.864,10.43-5.3,0-8.836-3.718-8.836-10.1,0-6.237,3.676-10.43,8.864-10.43C347.077,113.168,350.617,116.885,350.617,123.271Zm-14.922.218c0,5.936,2.736,9.708,6.167,9.708,3.622,0,5.964-4.044,5.964-9.818,0-5.936-2.723-9.708-6.154-9.708C338.036,113.671,335.7,117.715,335.7,123.489Z"/><path class="b" d="M358.624,113.563c.639.041,1.688.095,2.723.095.231,0,.449-.014.68-.014,1.28-.027,3.146-.081,4.207-.081,6.645,0,9.845,3.431,9.845,9.653,0,6.073-3.676,10.09-10.09,10.09-.844,0-2.709-.082-3.907-.082-1.308,0-2.683.027-3.458.082v-.559c1.892-.081,2.259-.367,2.259-2.4V116.517c0-2.029-.367-2.314-2.259-2.4Zm4.847,16.843c0,1.946.368,2.4,2.1,2.4,6.072,0,7.72-3.4,7.72-9.477,0-6.249-1.974-9.259-7.748-9.259-1.7,0-2.069.477-2.069,2.4Z"/><path class="b" d="M170.529,151.572a2.717,2.717,0,0,0,3,2.741c1.828,0,2.886-.833,2.886-2.1,0-1.379-1.075-1.572-3.159-2.068-2.548-.609-3.863-1.17-3.863-3.191s1.587-3.414,4.12-3.414c2.549,0,4.1,1.394,4.119,3.687h-1.49a2.43,2.43,0,0,0-2.725-2.388c-1.571,0-2.533.753-2.533,1.843,0,1.475,1.074,1.571,3.495,2.148a6.309,6.309,0,0,1,2.645,1.01,2.765,2.765,0,0,1,.945,2.2c0,2.2-1.666,3.638-4.424,3.638-2.79,0-4.409-1.458-4.521-4.1Z"/><path class="d" d="M179.938,143.846h1.571v11.526h-1.571Z"/><path class="b" d="M184.009,143.846h1.715l5.386,8.368a5.834,5.834,0,0,1,.53.978v-9.346h1.49v11.526h-1.7l-5.5-8.5a4.2,4.2,0,0,1-.433-.849v9.346h-1.491Z"/><path class="b" d="M205.167,151.091a4.6,4.6,0,0,1-4.888,4.6c-3.207,0-5.2-2.294-5.2-6.253,0-3.607,2.068-5.9,5.354-5.9,2.63,0,4.393,1.459,4.65,3.767h-1.54a2.888,2.888,0,0,0-3.173-2.373c-2.325,0-3.688,1.7-3.688,4.7,0,2.854,1.491,4.665,3.671,4.665a3.155,3.155,0,0,0,3.287-3.206Z"/><path class="e" d="M207.01,143.846h8.223v1.426h-6.669v3.446h6.156v1.347h-6.156v3.864h6.8v1.443H207.01Z"/><path class="b" d="M220.906,155.276c0-2.324,1.122-3.592,3.527-4.906l.945-.513a2.619,2.619,0,0,0,1.636-2.388A1.967,1.967,0,0,0,224.8,145.5c-1.346,0-2.2.947-2.2,2.582v.128h-1.459v-.193a3.513,3.513,0,0,1,3.72-3.847c2.212,0,3.671,1.33,3.671,3.319a3.786,3.786,0,0,1-2.4,3.51l-.946.482c-1.475.768-2.388,1.458-2.677,2.516h6.028v1.379h-7.631Z"/><path class="b" d="M233.6,144.166c2.517,0,3.864,1.972,3.864,5.771s-1.347,5.756-3.864,5.756c-2.5,0-3.847-1.957-3.847-5.756S231.1,144.166,233.6,144.166Zm0,10.212c1.668,0,2.309-1.443,2.309-4.441s-.641-4.457-2.309-4.457c-1.651,0-2.308,1.46-2.308,4.457S231.949,154.378,233.6,154.378Z"/><path class="f" d="M242.112,147.452h-2.6v-1.138c1.859-.016,2.789-.657,2.965-2.148h1.091v11.206h-1.459Z"/><path class="b" d="M251.2,144.166c2.517,0,3.864,1.972,3.864,5.771s-1.347,5.756-3.864,5.756c-2.5,0-3.847-1.957-3.847-5.756S248.7,144.166,251.2,144.166Zm0,10.212c1.668,0,2.309-1.443,2.309-4.441s-.641-4.457-2.309-4.457c-1.651,0-2.308,1.46-2.308,4.457S249.548,154.378,251.2,154.378Z"/><path class="b" d="M300.374,60.479a1.1,1.1,0,0,1,.625-.71.749.749,0,0,1,1.025.364.6.6,0,0,0,.651.4c.419,0,.839.021,1.257.043a.783.783,0,0,0,.725-.326,4.439,4.439,0,0,1,.62-.629.526.526,0,0,1,.856.556,2.25,2.25,0,0,1-.639,1.171c-.624.629-1.266,1.239-1.9,1.855-.2.194-.411.38-.613.573a3.719,3.719,0,0,1-2.52,1.048q-4.26.164-8.52.362a1.407,1.407,0,0,0-.653.2,4.584,4.584,0,0,1-3.443.6c-1.89-.369-3.778-.749-5.673-1.094a8.157,8.157,0,0,0-1.484-.084c-1.6.009-3.2.036-4.8.058q-3.357.045-6.713.093l-4.708.062q-3.379.047-6.758.094-3.054.043-6.106.092-3.5.049-6.992.094c-2.175.03-4.35.066-6.526.092-2.937.035-5.874.046-8.811.1-2.547.047-5.093.142-7.639.209-.994.026-1.989.048-2.983.048q-44.333,0-88.663.007a2.74,2.74,0,0,1-1.344-.3,1.308,1.308,0,0,1-.7-.986q-.107-.644-.18-1.292c-.043-.387.093-.558.483-.577.559-.026,1.119-.024,1.678-.033,1.833-.032,3.667-.058,5.5-.1q4.24-.087,8.48-.187c1.6-.037,3.2-.084,4.8-.122q3.378-.081,6.756-.157,3.867-.091,7.734-.186c2.672-.063,5.343-.107,8.014-.2a32.716,32.716,0,0,0,3.341-.263c1.737-.238,3.464-.556,5.194-.842a3.172,3.172,0,0,0,.339-.1l.012-.1c-.164-.059-.327-.123-.493-.175-.591-.186-1.186-.359-1.773-.557a2.835,2.835,0,0,1-.5-.293c.126-.235.24-.434.342-.639a1.383,1.383,0,0,0,.151-.387c.049-.309-.128-.466-.438-.408-.213.04-.423.106-.638.13a2.644,2.644,0,0,1-1.7-.374,1.573,1.573,0,0,0-.841-.221q-4.058-.027-8.113-.062c-2.424-.024-4.848-.06-7.272-.092-2.175-.03-4.351-.066-6.526-.092-2.968-.035-5.936-.05-8.9-.1-2.7-.044-5.4-.14-8.108-.178-3.045-.043-6.091-.048-9.137-.065a3.047,3.047,0,0,0-.695.06,9.536,9.536,0,0,1-2.225.124c-1.554-.009-3.109.013-4.662-.04a19.413,19.413,0,0,1-4.245-.542,9.859,9.859,0,0,1-1.429-.554.419.419,0,0,1-.233-.3.44.44,0,0,1,.256-.284c.386-.16.787-.286,1.181-.429a12.4,12.4,0,0,0,2.253-.869,1.381,1.381,0,0,1,.953-.124c.994.171,1.988.337,2.985.49,1.873.288,3.742.6,5.622.83a29,29,0,0,0,3.164.135c3.714.043,7.429.067,11.143.1q2.145.016,4.29.031,5.128.031,10.258.063,6.132.042,12.262.094,3.264.029,6.526.08a2.2,2.2,0,0,0,1.289-.315,2.512,2.512,0,0,1,.592-.268,1.473,1.473,0,0,1,1.448.244c.465.37.577.362,1.03-.059a1.59,1.59,0,0,1,1.891-.3,1.415,1.415,0,0,1,.251.12,3.268,3.268,0,0,0,2.037.5c1.957.012,3.915.051,5.872.088,1.864.036,3.728.083,5.591.123a1.744,1.744,0,0,1,1.057.3.365.365,0,0,0,.538-.046c.109-.111.22-.219.331-.329a1.611,1.611,0,0,1,1.209-.513.762.762,0,0,0,.79-.53,5.579,5.579,0,0,1,2.276-2.638,2.355,2.355,0,0,0,.919-1.143,11.072,11.072,0,0,1,1.684-2.89,3.466,3.466,0,0,1,1.07-.885,1.672,1.672,0,0,1,1.027-.225,1.128,1.128,0,0,0,.977-.343,2.52,2.52,0,0,1,1.066-.638c.381-.114.428-.31.176-.619a1.506,1.506,0,0,0-.348-.3.881.881,0,0,1-.431-.684c-.092-.989-.2-1.978-.256-2.969a1.269,1.269,0,0,1,.2-.7,1.432,1.432,0,0,0,.241-1.307c-.146-.426-.008-.649.41-.862a4.281,4.281,0,0,1,2.033-.42,8.014,8.014,0,0,1,.929.069,2.1,2.1,0,0,1,1.824,2.512,8.584,8.584,0,0,1-.27.89c-.086.281-.157.568-.26.842a2.117,2.117,0,0,1-.312.614,1.9,1.9,0,0,0,.048,2.1,1.12,1.12,0,0,0,.8.419c.569.064,1.138.147,1.7.253a2.681,2.681,0,0,1,.7.258,2.066,2.066,0,0,1,1.233,1.978c-.005.543-.113,1.09-.078,1.628a9.527,9.527,0,0,1-1.235,5.372,8.362,8.362,0,0,0-.913,2.776,4.015,4.015,0,0,1-.423,1.126c-.293.584-.193.773.48.788q1.607.036,3.214.071c1.771.035,3.542.063,5.313.1a1.442,1.442,0,0,0,.957-.3,13.393,13.393,0,0,1,4.7-2.3,1.393,1.393,0,0,0,.35-.121.307.307,0,0,0,.118-.217c0-.041-.1-.129-.154-.13-.574-.007-1.149-.011-1.723.01-.1,0-.2.125-.3.2-.288.212-.424.217-.7-.012-.193-.157-.374-.328-.555-.5a.923.923,0,0,0-.715-.28,2.811,2.811,0,0,1-1.561-.391,1.567,1.567,0,0,0-1.391-.077c-.232.091-.463.185-.685.3a.644.644,0,0,1-.694-.044,4.014,4.014,0,0,0-.892-.376c-.6-.186-.717-.327-.706-.964a3.185,3.185,0,0,1,.022-.325.7.7,0,0,1,.6-.667,2.2,2.2,0,0,1,1.623.2c.6.346.864.29,1.313-.272a10.4,10.4,0,0,1,2.241-2.092,3.834,3.834,0,0,1,1.7-.722,1.6,1.6,0,0,0,1.171-.837,15.791,15.791,0,0,1,1.863-2.5c.255-.272.525-.53.8-.787a4.632,4.632,0,0,1,2.938-1.258c.263-.019.524-.062.786-.1.21-.029.3-.14.232-.357-.155-.469-.318-.937-.46-1.41a4.968,4.968,0,0,1-.214-.9c-.079-.742-.126-1.486-.181-2.23a3.407,3.407,0,0,1,.208-1.466,1.862,1.862,0,0,1,1.1-1.138,4.053,4.053,0,0,1,2.331-.234,2.016,2.016,0,0,1,1.593,1.741,3.49,3.49,0,0,1-.03,1.526,18.29,18.29,0,0,1-.481,2.18,2.877,2.877,0,0,0-.08.97.5.5,0,0,0,.39.508,1.989,1.989,0,0,1,.578.366c.54.442,1.061.907,1.6,1.345a3.061,3.061,0,0,1,1.218,2.875,26.251,26.251,0,0,1-1.346,5.988c-.159.42-.388.812-.581,1.219-.063.132-.223.287-.05.408a.685.685,0,0,0,.433.047c.134-.016.26-.125.393-.132a3.035,3.035,0,0,1,.967.016,12.334,12.334,0,0,0,2.533.325c.372.027.7.057.912.432a.654.654,0,0,0,.434.223c1.966.3,3.934.579,5.9.873.707.106,1.408.252,2.115.354,1.368.2,2.74.364,4.108.563,1.752.254,3.5.523,5.252.793a23.437,23.437,0,0,0,3.617.316c3.389-.006,6.778,0,10.168,0q12.429-.012,24.858-.03ZM178.293,57.746c.07.407.137.771.2,1.137a.262.262,0,0,0,.288.241c.264.009.528.02.791.037,1.891.115,3.781.241,5.673.345,2.481.137,4.963.252,7.444.389.494.027.987.1,1.478.17a.742.742,0,0,1,.681.483c.038.1.151.183.258.307.193-.175.366-.326.532-.485a3.969,3.969,0,0,1,1.937-1.057,1.09,1.09,0,0,0,.456-.214,4.629,4.629,0,0,1,1.429-.768c.209-.074.41-.169.65-.268a2.106,2.106,0,0,0-1.03-.295.986.986,0,0,0-1.131.312c-.185.233-.441.2-.643-.028a2.846,2.846,0,0,1-.237-.342c-.6-.116-1.131-.234-1.665-.315a3.782,3.782,0,0,0-.831-.022c-.618.043-1.234.151-1.852.157-1.3.013-2.61-.02-3.914-.039-1.025-.015-2.051-.038-3.076-.056-1.522-.028-3.044-.061-4.566-.076a1.25,1.25,0,0,0-.667.139,1.788,1.788,0,0,1-1.2.253C178.973,57.724,178.65,57.746,178.293,57.746Zm45.516-3.153a1.955,1.955,0,0,0,1.393.077,2.8,2.8,0,0,1,2.255.1,1.277,1.277,0,0,0,1.518-.2c.5-.467.967-.964,1.421-1.473a.815.815,0,0,0,.192-.548c-.056-.664-.149-1.326-.252-1.985-.05-.316-.272-.415-.548-.248a3.553,3.553,0,0,0-.578.464,4.244,4.244,0,0,1-1.608.995,3.219,3.219,0,0,0-1.187.716c-.366.334-.745.655-1.133.965C224.823,53.83,224.35,54.179,223.809,54.593Zm-23.855,1.144a13.7,13.7,0,0,0,1.69.612,7.489,7.489,0,0,0,1.479.065c.068,0,.138-.062.207-.094a3.515,3.515,0,0,1,.59-.257.482.482,0,0,0,.4-.495,3.923,3.923,0,0,1,.082-.55,4.351,4.351,0,0,0-.436-2.975.654.654,0,0,0-.069-.121.322.322,0,0,0-.519-.067.824.824,0,0,0-.226.23A2.938,2.938,0,0,1,202,53.145a2.365,2.365,0,0,0-.842.847c-.286.461-.617.894-.928,1.339C200.143,55.455,200.06,55.581,199.954,55.737Zm36.975,4.156a2.63,2.63,0,0,0,.512.052c.725-.079,1.449-.166,2.17-.272a.381.381,0,0,0,.226-.237c.047-.148-.035-.252-.2-.314-.433-.168-.848-.393-1.292-.52a3.039,3.039,0,0,0-1.008-.08c-.314.019-.392.135-.408.46C236.917,59.274,236.929,59.567,236.929,59.893Zm9.131-.063c-.413-.187-.6-.193-.883,0Z"/><path class="b" d="M49.943,83.369c0-5.743,0-6.8-.076-8.011-.075-1.284-.377-1.889-1.624-2.154a7.825,7.825,0,0,0-1.474-.113c-.416,0-.642-.075-.642-.34s.264-.34.831-.34c2,0,4.383.114,5.177.114,1.285,0,4.157-.114,5.328-.114,2.381,0,4.913.226,6.954,1.625a6.548,6.548,0,0,1,2.569,5.177c0,2.8-1.171,5.366-4.988,8.465,3.363,4.232,5.97,7.6,8.2,9.939,2.116,2.191,3.666,2.456,4.233,2.568a5.908,5.908,0,0,0,1.058.114c.3,0,.453.114.453.3,0,.3-.265.379-.718.379h-3.59a7.685,7.685,0,0,1-4.043-.719c-1.625-.869-3.061-2.644-5.177-5.555-1.512-2.078-3.25-4.647-3.741-5.214a.789.789,0,0,0-.681-.265L54.7,89.152c-.188,0-.3.075-.3.3v.529c0,3.514,0,6.5.189,8.086.113,1.1.34,1.928,1.474,2.079a17.263,17.263,0,0,0,1.852.151c.3,0,.453.114.453.3,0,.265-.264.379-.755.379-2.193,0-4.989-.114-5.556-.114-.718,0-3.1.114-4.61.114-.491,0-.755-.114-.755-.379,0-.188.15-.3.6-.3a6.137,6.137,0,0,0,1.36-.151c.757-.151.945-.982,1.1-2.079.189-1.586.189-4.572.189-8.049ZM54.4,86.355c0,.416.076.567.341.681a9.978,9.978,0,0,0,2.872.377,3.783,3.783,0,0,0,2.683-.642c1.133-.832,2.229-2.57,2.229-5.669,0-5.366-3.552-6.915-5.782-6.915a8.308,8.308,0,0,0-2,.151c-.265.076-.341.227-.341.529Z"/><path class="b" d="M79.986,91.343c-.189,0-.265.075-.34.3l-2.041,5.176a7.332,7.332,0,0,0-.567,2.306c0,.68.341,1.171,1.511,1.171h.567c.454,0,.567.076.567.3,0,.3-.227.379-.642.379-1.209,0-2.834-.114-4.006-.114-.416,0-2.493.114-4.459.114-.491,0-.718-.076-.718-.379,0-.226.151-.3.454-.3a11.663,11.663,0,0,0,1.171-.075c1.738-.227,2.457-1.512,3.212-3.4l9.486-23.429c.453-1.1.679-1.511,1.058-1.511.34,0,.566.34.944,1.209.907,2.078,6.953,17.194,9.372,22.938,1.436,3.4,2.532,3.93,3.325,4.119a8.324,8.324,0,0,0,1.588.151c.3,0,.491.038.491.3,0,.3-.341.379-1.739.379-1.36,0-4.119,0-7.142-.076-.68-.038-1.134-.038-1.134-.3,0-.226.152-.3.53-.34a.616.616,0,0,0,.34-.869L88.79,91.608a.362.362,0,0,0-.377-.265Zm7.709-1.889c.189,0,.226-.113.189-.227l-3.4-9.3c-.038-.15-.076-.339-.19-.339s-.188.189-.226.339L80.59,89.189c-.037.152,0,.265.152.265Z"/><path class="b" d="M104.927,83.369c0-5.743,0-6.8-.075-8.011-.076-1.284-.378-1.889-1.625-2.154a7.825,7.825,0,0,0-1.474-.113c-.416,0-.642-.075-.642-.34s.264-.34.831-.34c2,0,4.383.114,5.366.114.907,0,3.288-.114,4.761-.114.53,0,.794.075.794.34s-.227.34-.68.34a5.73,5.73,0,0,0-1.1.113c-1.02.189-1.323.832-1.4,2.154-.076,1.209-.076,2.268-.076,8.011v6.992c0,1.624.114,3.438.114,5.328a20.281,20.281,0,0,1-.907,6.689c-.794,2.305-2.8,4.913-6.425,7.142a20.662,20.662,0,0,1-1.889.982,1.678,1.678,0,0,1-.756.227.3.3,0,0,1-.3-.3c0-.189.189-.34.831-.68a7.923,7.923,0,0,0,1.814-1.437c2.872-2.909,2.834-6.688,2.834-14.1Z"/><path class="b" d="M122.159,91.343c-.188,0-.264.075-.34.3l-2.041,5.176a7.361,7.361,0,0,0-.567,2.306c0,.68.341,1.171,1.512,1.171h.567c.453,0,.567.076.567.3,0,.3-.227.379-.642.379-1.21,0-2.835-.114-4.006-.114-.416,0-2.494.114-4.459.114-.492,0-.718-.076-.718-.379,0-.226.151-.3.453-.3a11.683,11.683,0,0,0,1.172-.075c1.738-.227,2.456-1.512,3.212-3.4l9.485-23.429c.454-1.1.68-1.511,1.058-1.511.34,0,.566.34.945,1.209.907,2.078,6.953,17.194,9.371,22.938,1.436,3.4,2.532,3.93,3.326,4.119a8.314,8.314,0,0,0,1.587.151c.3,0,.491.038.491.3,0,.3-.34.379-1.738.379-1.361,0-4.119,0-7.142-.076-.68-.038-1.134-.038-1.134-.3,0-.226.152-.3.529-.34a.615.615,0,0,0,.34-.869l-3.023-7.784a.363.363,0,0,0-.378-.265Zm7.709-1.889c.189,0,.227-.113.189-.227l-3.4-9.3c-.037-.15-.076-.339-.189-.339s-.189.189-.226.339l-3.477,9.259c-.038.152,0,.265.151.265Z"/><path class="b" d="M166.487,84.428c.113,0,.227-.076.227-.265v-.794c0-5.743,0-6.8-.076-8.011-.076-1.284-.378-1.889-1.625-2.154a7.833,7.833,0,0,0-1.474-.113c-.416,0-.643-.075-.643-.34s.265-.34.795-.34c2.04,0,4.421.114,5.441.114.907,0,3.288-.114,4.761-.114.53,0,.794.075.794.34s-.227.34-.68.34a6.777,6.777,0,0,0-1.1.113c-1.02.189-1.323.832-1.4,2.154-.076,1.209-.076,2.268-.076,8.011V90.02c0,3.477,0,6.463.189,8.088.113,1.058.34,1.889,1.474,2.04a15.83,15.83,0,0,0,1.927.151c.416,0,.605.114.605.3,0,.265-.3.379-.756.379-2.456,0-4.837-.114-5.9-.114-.869,0-3.25.114-4.723.114-.53,0-.795-.114-.795-.379,0-.188.152-.3.6-.3a6.129,6.129,0,0,0,1.36-.151c.756-.151.946-.982,1.1-2.079.19-1.586.19-4.572.19-8.049V86.695a.218.218,0,0,0-.227-.226H152.051a.2.2,0,0,0-.227.226V90.02c0,3.477,0,6.463.189,8.088.114,1.058.341,1.889,1.474,2.04a15.831,15.831,0,0,0,1.928.151c.415,0,.6.114.6.3,0,.265-.3.379-.756.379-2.456,0-4.837-.114-5.9-.114-.869,0-3.249.114-4.761.114-.492,0-.756-.114-.756-.379,0-.188.152-.3.6-.3a6.147,6.147,0,0,0,1.361-.151c.755-.151.945-.982,1.1-2.079.189-1.586.189-4.572.189-8.049V83.369c0-5.743,0-6.8-.075-8.011-.076-1.284-.379-1.889-1.625-2.154a7.84,7.84,0,0,0-1.474-.113c-.416,0-.643-.075-.643-.34s.264-.34.794-.34c2.041,0,4.421.114,5.441.114.907,0,3.288-.114,4.762-.114.529,0,.794.075.794.34s-.228.34-.681.34a6.787,6.787,0,0,0-1.1.113c-1.02.189-1.323.832-1.4,2.154-.076,1.209-.076,2.268-.076,8.011v.794c0,.189.114.265.227.265Z"/><path class="b" d="M195.169,83.369c0-5.743,0-6.8-.075-8.011-.076-1.284-.378-1.889-1.625-2.154a7.818,7.818,0,0,0-1.474-.113c-.416,0-.642-.075-.642-.34s.265-.34.831-.34c2,0,4.383.114,5.178.114,1.284,0,4.156-.114,5.328-.114,2.38,0,4.912.226,6.953,1.625a6.548,6.548,0,0,1,2.57,5.177c0,2.8-1.172,5.366-4.989,8.465,3.363,4.232,5.971,7.6,8.2,9.939,2.117,2.191,3.666,2.456,4.233,2.568a5.926,5.926,0,0,0,1.058.114c.3,0,.453.114.453.3,0,.3-.264.379-.718.379h-3.59a7.685,7.685,0,0,1-4.043-.719c-1.625-.869-3.061-2.644-5.177-5.555-1.511-2.078-3.25-4.647-3.741-5.214a.789.789,0,0,0-.681-.265l-3.287-.075c-.189,0-.3.075-.3.3v.529c0,3.514,0,6.5.19,8.086.113,1.1.34,1.928,1.474,2.079a17.246,17.246,0,0,0,1.851.151c.3,0,.454.114.454.3,0,.265-.265.379-.756.379-2.192,0-4.988-.114-5.555-.114-.719,0-3.1.114-4.611.114-.491,0-.755-.114-.755-.379,0-.188.15-.3.6-.3a6.134,6.134,0,0,0,1.359-.151c.757-.151.946-.982,1.1-2.079.188-1.586.188-4.572.188-8.049Zm4.459,2.986c0,.416.076.567.341.681a9.978,9.978,0,0,0,2.872.377,3.781,3.781,0,0,0,2.683-.642c1.133-.832,2.229-2.57,2.229-5.669,0-5.366-3.552-6.915-5.781-6.915a8.312,8.312,0,0,0-2,.151c-.265.076-.341.227-.341.529Z"/><path class="b" d="M219.393,86.695c0-6.462,4.27-14.813,15.607-14.813,9.409,0,15.266,5.48,15.266,14.133s-6.046,15.493-15.645,15.493C223.776,101.508,219.393,93.384,219.393,86.695Zm25.583.718c0-8.465-4.875-13.718-11.072-13.718-4.346,0-9.3,2.419-9.3,11.829,0,7.86,4.346,14.1,11.6,14.1C238.854,99.619,244.976,98.334,244.976,87.413Z"/><path class="b" d="M255.18,76.114a5.5,5.5,0,0,0-1.4-2.683,3.346,3.346,0,0,0-1.511-.34c-.378,0-.605-.038-.605-.34,0-.265.3-.34.832-.34,1.965,0,4.044.114,4.384.114s2-.114,4.194-.114c.529,0,.794.114.794.34,0,.3-.3.34-.68.34a2,2,0,0,0-.945.151c-.34.151-.416.416-.416.832a24.8,24.8,0,0,0,.831,3.476c.643,2.494,4.158,13.944,4.837,16.061h.114l7.331-19.727c.378-1.057.643-1.359.945-1.359.415,0,.605.566,1.1,1.775l7.86,19.046h.113c.68-2.532,3.7-12.509,5.026-16.93a8.043,8.043,0,0,0,.378-2.191c0-.6-.34-1.134-1.814-1.134-.378,0-.642-.114-.642-.34,0-.265.3-.34.869-.34,2,0,3.59.114,3.93.114.265,0,1.889-.114,3.137-.114.415,0,.68.075.68.3,0,.264-.189.378-.53.378a4.148,4.148,0,0,0-1.322.189c-.907.34-1.323,1.852-2.116,4.006-1.739,4.761-5.706,16.778-7.558,22.447-.416,1.322-.605,1.775-1.1,1.775-.378,0-.605-.453-1.171-1.851l-7.86-18.97h-.076c-.718,1.927-5.744,15.342-7.369,18.819-.718,1.549-.907,2-1.361,2-.377,0-.529-.416-.868-1.4Z"/><path class="b" d="M299.545,83.369c0-5.743,0-6.8-.075-8.011-.076-1.284-.454-1.927-1.285-2.116a5.386,5.386,0,0,0-1.361-.151c-.377,0-.6-.075-.6-.378,0-.227.3-.3.907-.3,1.436,0,3.816.114,4.912.114.945,0,3.175-.114,4.61-.114.492,0,.794.075.794.3,0,.3-.227.378-.6.378a6.435,6.435,0,0,0-1.133.113c-1.021.189-1.323.832-1.4,2.154-.076,1.209-.076,2.268-.076,8.011V90.02c0,3.666,0,6.651.151,8.276.114,1.021.378,1.7,1.512,1.852a15.83,15.83,0,0,0,1.927.151c.416,0,.6.114.6.3,0,.265-.3.379-.718.379-2.494,0-4.875-.114-5.9-.114-.869,0-3.249.114-4.761.114-.491,0-.756-.114-.756-.379,0-.188.152-.3.6-.3a6.164,6.164,0,0,0,1.362-.151c.755-.151.982-.794,1.1-1.889.189-1.588.189-4.573.189-8.239Z"/><path class="b" d="M318.743,95.84c.075,2.947.567,3.93,1.323,4.2a6.019,6.019,0,0,0,1.965.264c.415,0,.642.076.642.3,0,.3-.34.379-.87.379-2.456,0-3.967-.114-4.685-.114-.34,0-2.117.114-4.082.114-.491,0-.831-.038-.831-.379,0-.226.227-.3.605-.3a6.709,6.709,0,0,0,1.7-.189c.982-.3,1.134-1.4,1.172-4.686l.34-22.257c0-.756.113-1.285.491-1.285.416,0,.756.491,1.4,1.171.454.491,6.2,6.538,11.715,12.017,2.57,2.57,7.671,8.012,8.314,8.616h.188l-.377-16.967c-.038-2.305-.378-3.024-1.285-3.4a6.16,6.16,0,0,0-2-.227c-.453,0-.605-.114-.605-.34,0-.3.416-.34.983-.34,1.965,0,3.779.114,4.573.114.415,0,1.851-.114,3.7-.114.491,0,.869.038.869.34,0,.226-.226.34-.681.34a4.126,4.126,0,0,0-1.133.113c-1.058.3-1.36,1.1-1.4,3.212l-.416,23.845c0,.831-.151,1.172-.491,1.172-.416,0-.869-.416-1.285-.832-2.38-2.267-7.217-7.217-11.147-11.109-4.12-4.082-8.315-8.692-8.995-9.41h-.113Z"/><path class="b" d="M374.974,98.448c0,1.02-.039,1.1-.491,1.36-2.457,1.284-6.16,1.7-9.108,1.7-9.258,0-17.458-4.383-17.458-14.813a14.129,14.129,0,0,1,6.575-12.357,18.306,18.306,0,0,1,10.165-2.456,45.522,45.522,0,0,1,6.689.6,24.753,24.753,0,0,0,2.985.416c.454.038.529.189.529.454a51.061,51.061,0,0,0-.264,6.2c0,.6-.113.793-.416.793-.264,0-.34-.188-.378-.491a5.3,5.3,0,0,0-1.285-3.136,12.079,12.079,0,0,0-8.426-2.948,10.9,10.9,0,0,0-7.483,2.343c-2.116,1.776-3.477,4.611-3.477,9.258,0,8.125,5.177,14.209,13.151,14.209a8.377,8.377,0,0,0,3.212-.415,1.343,1.343,0,0,0,.718-1.4V94.215c0-1.89,0-3.325-.038-4.459-.037-1.285-.378-1.889-1.625-2.154a7.807,7.807,0,0,0-1.474-.114c-.34,0-.566-.075-.566-.3,0-.3.264-.378.793-.378,1.965,0,4.346.114,5.48.114,1.171,0,3.174-.114,4.422-.114.491,0,.755.076.755.378,0,.227-.227.3-.492.3a6.02,6.02,0,0,0-1.02.114c-1.02.189-1.4.832-1.436,2.154-.037,1.134-.037,2.645-.037,4.535Z"/></g></svg>